<?xml version="1.0" encoding="UTF-8" standalone="no"?>
<svg
   height="24px"
   viewBox="0 0 24 24"
   width="24px"
   fill="#000000"
   version="1.1"
   id="svg6"
   sodipodi:docname="multimercado.svg"
   inkscape:version="1.1 (c68e22c387, 2021-05-23)"
   xmlns:inkscape="http://www.inkscape.org/namespaces/inkscape"
   xmlns:sodipodi="http://sodipodi.sourceforge.net/DTD/sodipodi-0.dtd"
   xmlns="http://www.w3.org/2000/svg"
   xmlns:svg="http://www.w3.org/2000/svg">
  <defs
     id="defs10" />
  <sodipodi:namedview
     id="namedview8"
     pagecolor="#ffffff"
     bordercolor="#666666"
     borderopacity="1.0"
     inkscape:pageshadow="2"
     inkscape:pageopacity="0.0"
     inkscape:pagecheckerboard="0"
     showgrid="false"
     inkscape:zoom="35.916667"
     inkscape:cx="5.512761"
     inkscape:cy="11.944316"
     inkscape:window-width="2400"
     inkscape:window-height="1284"
     inkscape:window-x="-9"
     inkscape:window-y="-9"
     inkscape:window-maximized="1"
     inkscape:current-layer="svg6" />
  <path
     d="M0 0h24v24H0z"
     fill="none"
     id="path2" />
  <path
     d="M12 2C6.48 2 2 6.48 2 12s4.48 10 10 10 10-4.48 10-10S17.52 2 12 2zm-1 17.93c-3.95-.49-7-3.85-7-7.93 0-.62.08-1.21.21-1.79L9 15v1c0 1.1.9 2 2 2v1.93zm6.9-2.54c-.26-.81-1-1.39-1.9-1.39h-1v-3c0-.55-.45-1-1-1H8v-2h2c.55 0 1-.45 1-1V7h2c1.1 0 2-.9 2-2v-.41c2.93 1.19 5 4.06 5 7.41 0 2.08-.8 3.97-2.1 5.39z"
     id="path4" />
  <path
     style="fill:#e7e6e6;fill-opacity:1;fill-rule:evenodd;stroke-width:0.101547"
     d="M 11.554524,21.976868 C 9.0081536,21.840662 6.7092443,20.826104 4.9415699,19.05843 1.6425293,15.75939 1.0664267,10.607862 3.5565024,6.6731154 6.4284064,2.1350137 12.351427,0.67414182 17.000469,3.3572542 c 1.08488,0.6261191 2.09183,1.5058998 2.884889,2.5205516 1.657155,2.12019 2.383359,4.8680932 1.996885,7.5560692 -0.535692,3.725812 -3.165592,6.860781 -6.749992,8.046321 -1.138492,0.376556 -2.441526,0.557447 -3.577727,0.496672 z M 11.025522,18.964642 V 17.99425 L 10.815377,17.97649 C 10.050044,17.911792 9.3637957,17.358621 9.1098654,16.601709 9.0406733,16.395462 9.0367542,16.35201 9.0275541,15.689095 l -0.00966,-0.696056 -2.399167,-2.400721 c -1.663791,-1.664869 -2.405527,-2.389356 -2.4199165,-2.363644 -0.011412,0.02039 -0.051702,0.217423 -0.089532,0.437844 -0.3731868,2.174391 0.1449796,4.329906 1.4730882,6.127885 0.3028535,0.409999 0.9507168,1.085086 1.350348,1.407089 1.010946,0.814571 2.2088768,1.385326 3.4245942,1.631651 0.433903,0.08792 0.466411,0.09344 0.577726,0.0981 l 0.09049,0.0038 z m 7.04293,-1.744224 c 0.997053,-1.140818 1.671908,-2.65702 1.883652,-4.232019 0.06603,-0.491151 0.06626,-1.480363 4.6e-4,-1.962877 C 19.817851,10.037707 19.590822,9.2897989 19.166568,8.4361949 18.512653,7.1205079 17.501513,6.0037005 16.251881,5.2169117 15.948944,5.0261777 15.18325,4.6348206 15.055684,4.6055184 l -0.07657,-0.017588 v 0.3326713 c 0,0.5311754 -0.119091,0.9023858 -0.414839,1.2930591 -0.178659,0.2360035 -0.400784,0.4124439 -0.712771,0.5661742 -0.396401,0.1953254 -0.508436,0.2085636 -1.765074,0.2085636 h -1.085287 l -0.0099,1.1067285 c -0.0087,0.9686687 -0.01596,1.1223581 -0.0583,1.2320186 -0.07246,0.1877187 -0.224109,0.3777263 -0.3878,0.4859095 -0.258449,0.1708079 -0.354058,0.1823039 -1.5161669,0.1823039 H 7.9907193 v 1.0015099 1.001509 l 3.0974477,0.0078 3.097448,0.0078 0.16,0.06461 c 0.211238,0.0853 0.442871,0.299439 0.541784,0.500862 l 0.0778,0.158425 0.0078,1.633212 0.0078,1.633211 0.674326,0.012 c 0.755983,0.01345 0.857481,0.0311 1.231302,0.214018 0.254293,0.124433 0.473203,0.303102 0.667364,0.544683 0.129403,0.161007 0.320904,0.51499 0.320904,0.593181 0,0.05975 0.03725,0.03135 0.193742,-0.147706 z"
     id="path2031" />
  <path
     style="fill:#e7e6e6;fill-opacity:1;fill-rule:evenodd;stroke-width:0.101547"
     d="M 11.136891,21.936763 C 8.7110188,21.692936 6.6218172,20.712876 4.9419806,19.030685 3.5210648,17.607777 2.5842497,15.830335 2.2019017,13.831868 2.0010613,12.78211 1.98015,11.566459 2.1443884,10.488402 2.4905626,8.2161232 3.6623515,6.0624331 5.3723413,4.5555847 6.7595596,3.3331632 8.3602842,2.547547 10.168132,2.2018687 c 1.10161,-0.2106387 2.396399,-0.2217753 3.516323,-0.030244 2.444232,0.4180163 4.654102,1.749287 6.201698,3.7360292 1.192752,1.5312084 1.887988,3.3454706 2.05603,5.3653441 0.03633,0.436703 0.02085,1.403767 -0.02925,1.82677 -0.269501,2.275617 -1.261814,4.33597 -2.857611,5.933299 -1.591252,1.592778 -3.567169,2.559551 -5.858107,2.866241 -0.411839,0.05513 -1.658886,0.0778 -2.060325,0.03745 z m -0.111369,-2.972726 v -0.970998 l -0.08701,-0.0174 c -0.04785,-0.0096 -0.120396,-0.0174 -0.161204,-0.0174 -0.246474,0 -0.742682,-0.214847 -1.0219723,-0.44249 C 9.4376186,17.25678 9.1433635,16.776254 9.0800559,16.412993 9.0640438,16.321114 9.0455641,15.957773 9.03899,15.605568 L 9.0270373,14.965197 6.6952806,12.646544 C 5.4128144,11.371285 4.3567295,10.334686 4.3484254,10.34299 c -0.0083,0.0083 -0.048897,-0.01728 -0.090205,-0.05686 l -0.075107,-0.07196 -0.058341,0.315186 c -0.1114162,0.601925 -0.1288844,0.807126 -0.1287459,1.512403 1.475e-4,0.747042 0.02155,0.970725 0.1548,1.617762 0.2423775,1.176944 0.8564773,2.470551 1.5979028,3.365997 0.2555058,0.308584 0.9297371,0.98523 1.1979073,1.202199 0.7172932,0.58034 1.6259274,1.075537 2.5197216,1.373225 0.3505014,0.116738 0.5722268,0.173882 1.1693738,0.301375 0.06891,0.01471 0.184803,0.02809 0.25754,0.02973 l 0.132251,0.003 z m 7.07487,-1.763191 c 0.420152,-0.488166 0.790667,-1.053513 1.082001,-1.650962 0.212631,-0.43605 0.485593,-1.14134 0.463751,-1.198259 -0.0078,-0.02042 -0.0022,-0.04113 0.01245,-0.04602 0.03315,-0.01105 0.199747,-0.668659 0.25964,-1.024863 0.02446,-0.145475 0.05684,-0.414849 0.07196,-0.598607 0.1952,-2.372657 -0.642442,-4.6599259 -2.324375,-6.3469427 C 17.190932,5.8588714 16.590923,5.3920366 16.064965,5.0896552 15.864897,4.9746329 15.204038,4.6479516 15.0901,4.6077521 l -0.104106,-0.036731 -0.02027,0.3664084 c -0.03231,0.5842163 -0.150435,0.9296303 -0.446982,1.3070361 -0.238289,0.3032634 -0.785219,0.6290208 -1.154478,0.6876195 -0.09954,0.015796 -0.669605,0.036905 -1.266821,0.046911 l -1.085847,0.018191 10e-4,1.0188081 10e-4,1.0188078 -0.01493,-0.7795824 -0.01493,-0.7795823 -0.01392,0.8909512 -0.01392,0.8909513 -0.09464,0.1745246 c -0.113653,0.209589 -0.261878,0.3497031 -0.472786,0.4469159 -0.148237,0.068326 -0.189451,0.073168 -0.7829238,0.09198 -0.3445476,0.010922 -0.8488399,0.020879 -1.1206497,0.022128 l -0.4941992,0.00227 v 0.9978467 0.997847 l 0.7562636,0.01839 c 0.4159448,0.01012 1.8137041,0.01839 3.1061321,0.01839 h 2.349869 l 0.158369,0.0747 c 0.190683,0.08994 0.444949,0.33688 0.52512,0.509987 0.05624,0.121432 0.05839,0.175205 0.06985,1.746251 0.0065,0.891528 0.01877,1.627906 0.02726,1.636396 0.0085,0.0085 0.333582,0.02676 0.722427,0.04059 0.770669,0.02743 0.821634,0.03663 1.178008,0.212654 0.291828,0.144147 0.610124,0.441734 0.796635,0.744804 0.07611,0.123673 0.138381,0.233966 0.138381,0.245094 0,0.04937 0.05685,0.163069 0.08153,0.163069 0.01497,0 0.1049,-0.09025 0.199832,-0.200546 z"
     id="path2070" />
  <path
     style="fill:#e7e6e6;fill-opacity:1;fill-rule:evenodd;stroke-width:0.101547"
     d="m 11.317865,21.951282 c -0.04594,-0.0062 -0.221345,-0.02497 -0.389791,-0.04169 C 10.261133,21.843419 9.3487609,21.637035 8.6806207,21.401207 6.6174713,20.672997 4.8343328,19.266778 3.6391569,17.425407 2.7856278,16.110401 2.2882324,14.714736 2.0826758,13.058005 2.0264189,12.604589 2.0349267,11.270632 2.0970594,10.802784 2.4001803,8.5203405 3.3653328,6.5454145 4.9550141,4.9547454 6.5742579,3.3344959 8.570344,2.3769351 10.941995,2.0826758 c 0.453416,-0.056257 1.787373,-0.047749 2.255221,0.014384 2.299864,0.3054344 4.275452,1.2757357 5.87471,2.8853384 1.579176,1.5893913 2.513651,3.5156759 2.830327,5.8343068 0.06906,0.505678 0.0691,1.874286 5.5e-5,2.394432 -0.299566,2.257037 -1.280417,4.259116 -2.857655,5.832947 -1.595658,1.592211 -3.568278,2.554798 -5.853166,2.856193 -0.321873,0.04246 -1.666242,0.07906 -1.873632,0.051 z m -0.292343,-2.987245 v -0.970998 l -0.08701,-0.0174 c -0.04785,-0.0096 -0.120396,-0.0174 -0.161204,-0.0174 -0.246474,0 -0.742682,-0.214847 -1.0219723,-0.44249 C 9.4374967,17.256685 9.1431264,16.77587 9.0801951,16.412995 9.0642611,16.321115 9.0452361,15.957775 9.0379171,15.60557 L 9.0246134,14.965197 6.7336405,12.690499 C 5.4736054,11.439415 4.4367528,10.421716 4.4295234,10.428945 c -0.00723,0.0072 -0.065593,-0.03833 -0.1296965,-0.101242 l -0.116552,-0.114388 -0.058697,0.315616 c -0.080096,0.430678 -0.1237139,0.820273 -0.1077211,0.96216 0.00867,0.07696 0.00332,0.111931 -0.015372,0.100379 -0.04982,-0.03079 -0.00264,1.149414 0.06353,1.589229 0.2065869,1.373105 0.8063388,2.751754 1.6544395,3.80306 0.2368329,0.293577 0.8756792,0.944854 1.1609752,1.183564 0.7597634,0.635703 1.8270148,1.210354 2.7926442,1.503673 0.3511303,0.106659 1.0632563,0.259561 1.2201973,0.261991 l 0.132251,0.002 z m 7.049726,-1.736659 c 0.343574,-0.39423 0.681961,-0.883999 0.947399,-1.37123 0.179823,-0.330076 0.392036,-0.794133 0.372219,-0.81395 -0.0077,-0.0077 0.0049,-0.03294 0.02801,-0.05606 0.02312,-0.02312 0.03545,-0.05922 0.02739,-0.08021 -0.0081,-0.02099 -0.0037,-0.03817 0.0096,-0.03817 0.03131,0 0.08945,-0.165775 0.06948,-0.198093 -0.0084,-0.01356 -0.0045,-0.02464 0.0087,-0.02464 0.03312,0 0.09818,-0.188208 0.07694,-0.222576 -0.0095,-0.0154 -0.0027,-0.028 0.01516,-0.028 0.01785,0 0.02556,-0.01798 0.01713,-0.03997 -0.0084,-0.02198 -0.0018,-0.04446 0.01465,-0.04996 0.01649,-0.0055 0.03145,-0.05013 0.03324,-0.09918 0.0018,-0.04905 0.0113,-0.08922 0.02114,-0.08925 0.02668,-8.4e-5 0.115313,-0.382382 0.09593,-0.413748 -0.0092,-0.01487 -0.0047,-0.03124 0.01,-0.03637 0.03888,-0.01361 0.136755,-0.594526 0.168095,-0.997738 0.03359,-0.432114 0.03645,-1.094162 0.0047,-1.074507 -0.01301,0.008 -0.01771,-0.04738 -0.01042,-0.123176 0.03026,-0.314918 -0.143884,-1.271594 -0.346056,-1.9010935 C 19.082013,7.8369723 17.941631,6.3295634 16.42388,5.3203133 16.111652,5.1126933 15.318225,4.688239 15.095378,4.6096142 L 14.98669,4.5712672 14.96697,4.9340706 C 14.93591,5.5055204 14.82061,5.8535346 14.542527,6.2152307 14.378054,6.4291529 14.17287,6.5914452 13.867444,6.7491917 13.48694,6.9457142 13.400706,6.9570643 12.12529,6.9784936 l -1.113689,0.018712 0.0011,1.0187986 c 9.52e-4,0.8679369 -0.0011,0.9219124 -0.01392,0.3645062 l -0.01504,-0.6542923 -0.01392,0.7656613 c -0.01323,0.727531 -0.01711,0.7721259 -0.07787,0.8954714 -0.101797,0.2066428 -0.267395,0.3735675 -0.469118,0.4728752 -0.178677,0.087963 -0.191887,0.090041 -0.7015505,0.1103758 -0.2856944,0.011399 -0.7919502,0.021632 -1.1250128,0.022741 l -0.6055684,0.00202 v 0.9978032 0.997804 l 1.0232018,0.0184 c 0.562761,0.01012 1.9605209,0.01841 3.1061329,0.01844 l 2.08293,2.8e-5 0.158369,0.0747 c 0.190662,0.08993 0.44552,0.337029 0.526006,0.509988 0.05652,0.121456 0.05874,0.174981 0.07244,1.749147 0.0078,0.893122 0.01855,1.628275 0.02395,1.633674 0.0054,0.0054 0.329187,0.0227 0.71953,0.03845 0.390343,0.01575 0.75983,0.04294 0.821083,0.06043 0.265172,0.07572 0.573252,0.255842 0.795991,0.465379 0.22029,0.207233 0.462801,0.551279 0.528143,0.749268 0.01679,0.05088 0.04056,0.09251 0.05281,0.09251 0.01226,0 0.09053,-0.07831 0.173937,-0.174014 z"
     id="path2109" />
</svg>
