<?xml version="1.0" encoding="UTF-8" standalone="no"?>
<svg
   enable-background="new 0 0 24 24"
   height="24px"
   viewBox="0 0 24 24"
   width="24px"
   fill="#000000"
   version="1.1"
   id="svg6"
   sodipodi:docname="previdencia.svg"
   inkscape:version="1.1 (c68e22c387, 2021-05-23)"
   xmlns:inkscape="http://www.inkscape.org/namespaces/inkscape"
   xmlns:sodipodi="http://sodipodi.sourceforge.net/DTD/sodipodi-0.dtd"
   xmlns="http://www.w3.org/2000/svg"
   xmlns:svg="http://www.w3.org/2000/svg">
  <defs
     id="defs10" />
  <sodipodi:namedview
     id="namedview8"
     pagecolor="#ffffff"
     bordercolor="#666666"
     borderopacity="1.0"
     inkscape:pageshadow="2"
     inkscape:pageopacity="0.0"
     inkscape:pagecheckerboard="0"
     showgrid="false"
     inkscape:zoom="35.916667"
     inkscape:cx="12"
     inkscape:cy="11.944316"
     inkscape:window-width="2400"
     inkscape:window-height="1284"
     inkscape:window-x="-9"
     inkscape:window-y="-9"
     inkscape:window-maximized="1"
     inkscape:current-layer="svg6" />
  <rect
     fill="none"
     height="24"
     width="24"
     id="rect2" />
  <path
     d="M13.5,5.5c1.1,0,2-0.9,2-2s-0.9-2-2-2s-2,0.9-2,2S12.4,5.5,13.5,5.5z M20,12.5V23h-1V12.5c0-0.28-0.22-0.5-0.5-0.5 S18,12.22,18,12.5v1h-1v-0.69c-1.46-0.38-2.7-1.29-3.51-2.52C13.18,11.16,13,12.07,13,13c0,0.23,0.02,0.46,0.03,0.69L15,16.5V23h-2 v-5l-1.78-2.54L11,19l-3,4l-1.6-1.2L9,18.33V13c0-1.15,0.18-2.29,0.5-3.39L8,10.46V14H6V9.3l5.4-3.07l0,0.01 c0.59-0.31,1.32-0.33,1.94,0.03c0.36,0.21,0.63,0.51,0.8,0.85l0,0l0.79,1.67C15.58,10.1,16.94,11,18.5,11C19.33,11,20,11.67,20,12.5 z"
     id="path4" />
  <path
     style="fill:#fad97e;stroke-width:0.101547;fill-opacity:1"
     d="m 13.00232,20.487609 v -2.510072 l -0.883991,-1.260928 c -0.486194,-0.693511 -0.891364,-1.252262 -0.900377,-1.241669 -0.009,0.01059 -0.06308,0.796058 -0.12015,1.745478 -0.05707,0.94942 -0.108477,1.740996 -0.114237,1.759059 -0.0089,0.02782 -2.9012859,3.901248 -2.967298,3.973713 -0.02962,0.03252 -1.5863457,-1.12795 -1.5714536,-1.171444 0.00615,-0.01795 0.5882763,-0.802068 1.2936218,-1.74248 l 1.2824465,-1.709841 v -2.926537 c 0,-1.807579 0.011224,-3.062846 0.029355,-3.283042 0.058856,-0.714782 0.1882382,-1.466832 0.3725362,-2.1654097 0.076598,-0.2903443 0.085189,-0.3494222 0.048774,-0.335449 -0.024309,0.00933 -0.3674397,0.1996265 -0.7625129,0.4228847 l -0.7183149,0.405925 v 1.7645 1.764501 H 7.0023202 6.0139211 V 11.642381 9.3079645 L 8.7076566,7.7769131 C 10.189211,6.9348348 11.487338,6.21152 11.592384,6.169547 c 0.867345,-0.3465655 1.829457,-0.066085 2.369548,0.6907836 0.06758,0.094707 0.293845,0.535004 0.502808,0.9784378 0.516163,1.0953332 0.606892,1.2656374 0.837431,1.5719045 0.717254,0.9528601 1.750267,1.5047591 2.973699,1.5887311 0.231102,0.01586 0.48558,0.04157 0.565508,0.05712 0.362373,0.07052 0.780192,0.394158 0.966454,0.748615 0.19303,0.367337 0.181869,0.0075 0.182404,5.881637 l 4.83e-4,5.310905 H 19.50348 19.016241 l -6.12e-4,-5.296984 c -5.88e-4,-5.090316 -0.0026,-5.301329 -0.05201,-5.408353 C 18.869098,12.087549 18.725479,12 18.484043,12 c -0.216746,0 -0.367524,0.103655 -0.454873,0.312711 -0.03377,0.08083 -0.04309,0.217734 -0.04309,0.63303 v 0.529897 h -0.486382 -0.486382 l -0.0078,-0.336039 -0.0078,-0.336039 -0.37587,-0.125277 c -1.145772,-0.381886 -2.185153,-1.130852 -2.893676,-2.085151 -0.113353,-0.152673 -0.215483,-0.288436 -0.226955,-0.301696 -0.04273,-0.04939 -0.315228,0.920093 -0.398064,1.416221 -0.08143,0.487714 -0.104164,0.786154 -0.103602,1.360071 5.06e-4,0.517551 0.0062,0.590001 0.05285,0.668214 0.02875,0.04825 0.474036,0.688353 0.989518,1.422456 l 0.937241,1.334732 v 3.252275 3.252275 H 13.990719 13.00232 Z"
     id="path864" />
  <path
     style="fill:#fad97e;fill-opacity:1;stroke-width:0.101547"
     d="M 13.099768,5.4454753 C 12.349505,5.2718559 11.765956,4.7131863 11.581489,3.9919282 11.514342,3.7293861 11.509034,3.2948197 11.569797,3.0348028 11.697824,2.4869582 12.104688,1.982653 12.62645,1.7250871 c 0.310795,-0.1534227 0.526956,-0.2034486 0.87703,-0.2029706 0.350717,4.789e-4 0.561221,0.050482 0.890952,0.2116394 0.190763,0.093236 0.285874,0.1644652 0.490436,0.36729 0.215537,0.2137071 0.273316,0.2914781 0.383444,0.5161235 0.07132,0.1454756 0.147966,0.3522041 0.170333,0.4593967 0.209569,1.0043647 -0.355775,1.9825682 -1.336557,2.3126139 -0.273498,0.092036 -0.735696,0.117995 -1.00232,0.056295 z"
     id="path940" />
</svg>
