<?xml version="1.0" encoding="UTF-8" standalone="no"?>
<svg
   enable-background="new 0 0 24 24"
   height="24px"
   viewBox="0 0 24 24"
   width="24px"
   fill="#000000"
   version="1.1"
   id="svg14"
   sodipodi:docname="rendaFixa.svg"
   inkscape:version="1.1 (c68e22c387, 2021-05-23)"
   xmlns:inkscape="http://www.inkscape.org/namespaces/inkscape"
   xmlns:sodipodi="http://sodipodi.sourceforge.net/DTD/sodipodi-0.dtd"
   xmlns="http://www.w3.org/2000/svg"
   xmlns:svg="http://www.w3.org/2000/svg">
  <defs
     id="defs18" />
  <sodipodi:namedview
     id="namedview16"
     pagecolor="#ffffff"
     bordercolor="#666666"
     borderopacity="1.0"
     inkscape:pageshadow="2"
     inkscape:pageopacity="0.0"
     inkscape:pagecheckerboard="0"
     showgrid="false"
     inkscape:zoom="35.916667"
     inkscape:cx="12"
     inkscape:cy="11.944316"
     inkscape:window-width="2400"
     inkscape:window-height="1284"
     inkscape:window-x="-9"
     inkscape:window-y="-9"
     inkscape:window-maximized="1"
     inkscape:current-layer="svg14" />
  <g
     id="g4">
    <path
       d="M0,0h24v24H0V0z"
       fill="none"
       id="path2" />
  </g>
  <g
     id="g12">
    <g
       id="g10">
      <path
         d="M12,13V9c0-0.55-0.45-1-1-1H7V6h5V4H9.5V3h-2v1H6C5.45,4,5,4.45,5,5v4c0,0.55,0.45,1,1,1h4v2H5v2h2.5v1h2v-1H11 C11.55,14,12,13.55,12,13z"
         id="path6" />
      <polygon
         points="19.59,12.52 13.93,18.17 11.1,15.34 9.69,16.76 13.93,21 21,13.93"
         id="polygon8" />
    </g>
  </g>
  <path
     style="fill:#00b050;stroke-width:0.101547;fill-opacity:1"
     d="m 7.5174014,14.477958 v -0.50116 H 6.2645012 5.0116009 V 12.988399 12 H 7.5174014 10.023202 V 10.99768 9.9953596 L 7.9837587,9.9949253 C 5.7862008,9.9944575 5.7526985,9.9924724 5.5063269,9.8480876 5.3422995,9.7519612 5.1888155,9.5779545 5.0988909,9.3861725 L 5.025522,9.2296984 V 7.0023202 4.774942 L 5.1034665,4.6078886 C 5.2049298,4.390429 5.3942471,4.2002119 5.6071353,4.1018258 L 5.7772622,4.0232019 6.6473318,4.0144509 7.5174014,4.0057 V 3.5063303 3.0069606 h 0.9883991 0.988399 v 0.50116 0.5011601 H 10.7471 12 V 4.9976798 5.9860789 H 9.4941995 6.9883991 V 7.001652 8.0172253 l 2.1368909,0.00763 2.136891,0.00763 0.158425,0.077798 c 0.201423,0.098913 0.415561,0.3305465 0.500862,0.5417847 l 0.06461,0.1599998 0.0083,2.0585392 c 0.0088,2.181807 0.0016,2.337836 -0.118479,2.574839 -0.09148,0.180523 -0.340053,0.402139 -0.531332,0.473705 -0.14345,0.05367 -0.212615,0.05765 -1.002227,0.05765 H 9.4941995 v 0.50116 0.50116 H 8.5058005 7.5174014 Z"
     id="path872" />
  <path
     style="fill:#00b050;fill-opacity:1;stroke-width:0.101547"
     d="m 11.805174,18.863179 -2.1018797,-2.102018 0.6957617,-0.69618 0.695761,-0.696179 1.41266,1.412456 1.412659,1.412456 2.821685,-2.818435 c 1.551926,-1.550139 2.833332,-2.818434 2.847569,-2.818434 0.01424,0 0.332693,0.306999 0.70768,0.68222 l 0.681794,0.682221 -3.521873,3.521955 c -1.937031,1.937076 -3.528188,3.521956 -3.535905,3.521956 -0.0077,0 -0.959878,-0.945908 -2.115912,-2.102018 z"
     id="path948" />
</svg>
