<?xml version="1.0" encoding="UTF-8" standalone="no"?>
<svg
   enable-background="new 0 0 24 24"
   height="24px"
   viewBox="0 0 24 24"
   width="24px"
   fill="#000000"
   version="1.1"
   id="svg10"
   sodipodi:docname="reservaEmergencia.svg"
   inkscape:version="1.1 (c68e22c387, 2021-05-23)"
   xmlns:inkscape="http://www.inkscape.org/namespaces/inkscape"
   xmlns:sodipodi="http://sodipodi.sourceforge.net/DTD/sodipodi-0.dtd"
   xmlns="http://www.w3.org/2000/svg"
   xmlns:svg="http://www.w3.org/2000/svg">
  <defs
     id="defs14" />
  <sodipodi:namedview
     id="namedview12"
     pagecolor="#ffffff"
     bordercolor="#666666"
     borderopacity="1.0"
     inkscape:pageshadow="2"
     inkscape:pageopacity="0.0"
     inkscape:pagecheckerboard="0"
     showgrid="false"
     inkscape:zoom="35.916667"
     inkscape:cx="12"
     inkscape:cy="11.944316"
     inkscape:window-width="2400"
     inkscape:window-height="1284"
     inkscape:window-x="-9"
     inkscape:window-y="-9"
     inkscape:window-maximized="1"
     inkscape:current-layer="svg10" />
  <g
     id="g4">
    <rect
       fill="none"
       height="24"
       width="24"
       id="rect2" />
  </g>
  <g
     id="g8">
    <path
       d="M12,2C6.48,2,2,6.48,2,12c0,5.52,4.48,10,10,10s10-4.48,10-10C22,6.48,17.52,2,12,2z M19.46,9.12l-2.78,1.15 c-0.51-1.36-1.58-2.44-2.95-2.94l1.15-2.78C16.98,5.35,18.65,7.02,19.46,9.12z M12,15c-1.66,0-3-1.34-3-3s1.34-3,3-3s3,1.34,3,3 S13.66,15,12,15z M9.13,4.54l1.17,2.78c-1.38,0.5-2.47,1.59-2.98,2.97L4.54,9.13C5.35,7.02,7.02,5.35,9.13,4.54z M4.54,14.87 l2.78-1.15c0.51,1.38,1.59,2.46,2.97,2.96l-1.17,2.78C7.02,18.65,5.35,16.98,4.54,14.87z M14.88,19.46l-1.15-2.78 c1.37-0.51,2.45-1.59,2.95-2.97l2.78,1.17C18.65,16.98,16.98,18.65,14.88,19.46z"
       id="path6" />
  </g>
  <path
     style="fill:#c00000;stroke-width:0.101547;fill-opacity:1"
     d="M 11.554524,21.976868 C 9.0081536,21.840662 6.7092443,20.826104 4.9415699,19.05843 1.6425293,15.75939 1.0664267,10.607862 3.5565024,6.6731154 6.4284064,2.1350137 12.351427,0.67414182 17.000469,3.3572542 c 1.08488,0.6261191 2.09183,1.5058998 2.884889,2.5205516 1.657155,2.12019 2.383359,4.8680932 1.996885,7.5560692 -0.535735,3.726109 -3.165306,6.860686 -6.749992,8.046321 -1.138492,0.376556 -2.441526,0.557447 -3.577727,0.496672 z M 9.7192318,18.071614 c 0.3187562,-0.7569 0.5743402,-1.384624 0.5679632,-1.394942 -0.0064,-0.01032 -0.07152,-0.04126 -0.144754,-0.06877 C 9.4659775,16.353861 8.6954748,15.79653 8.2010478,15.203628 7.8768482,14.814858 7.5368932,14.246006 7.3726232,13.817414 l -0.045082,-0.117622 -0.2600584,0.109315 c -0.1430322,0.06012 -0.7709793,0.319781 -1.3954382,0.577018 -1.1112429,0.457761 -1.1350308,0.469183 -1.1189775,0.537309 0.031878,0.13528 0.3042761,0.708395 0.494845,1.041135 0.3966974,0.692646 0.7218885,1.113393 1.3261088,1.715779 0.7298013,0.727585 1.4359276,1.2131 2.3960364,1.647454 0.1609231,0.0728 0.3099191,0.129583 0.3311023,0.12618 0.022414,-0.0036 0.2807903,-0.581479 0.6180722,-1.382368 z m 5.4314332,1.290989 c 0.352755,-0.150595 0.88965,-0.43743 1.20359,-0.643014 0.502306,-0.328937 0.829646,-0.597845 1.298567,-1.066767 0.469545,-0.469545 0.737777,-0.796182 1.068319,-1.300937 0.323304,-0.493703 0.780437,-1.429565 0.72406,-1.482328 -0.01827,-0.0171 -1.908595,-0.821302 -2.733834,-1.163055 -0.02273,-0.0094 -0.05272,0.02949 -0.0824,0.106868 -0.08486,0.221215 -0.335956,0.70303 -0.476942,0.915168 -0.339902,0.511441 -0.780384,0.970266 -1.270812,1.323732 -0.236543,0.170484 -1.034634,0.597382 -1.116813,0.597382 -0.021,0 -0.03818,0.01241 -0.03818,0.02758 0,0.01517 0.239448,0.607166 0.532107,1.315545 0.292659,0.708379 0.548864,1.328681 0.569345,1.378449 0.02048,0.04977 0.0493,0.09049 0.06403,0.09049 0.01474,0 0.13127,-0.0446 0.258961,-0.09911 z M 12.75747,14.914176 c 1.051696,-0.27413 1.873277,-1.094847 2.158976,-2.156706 0.06532,-0.242764 0.07271,-0.319754 0.07271,-0.75747 0,-0.437716 -0.0074,-0.514706 -0.07271,-0.75747 C 14.631717,10.184278 13.817873,9.3683059 12.765008,9.0854656 12.513716,9.0179591 12.440796,9.0108465 12,9.0108465 c -0.437716,0 -0.514706,0.00739 -0.75747,0.072707 C 10.181462,9.3690404 9.3690404,10.181462 9.0835537,11.24253 9.0182364,11.485294 9.0108465,11.562284 9.0108465,12 c 0,0.437716 0.00739,0.514706 0.072707,0.75747 0.307345,1.142309 1.2183225,1.987771 2.3778465,2.206835 0.336785,0.06363 0.950749,0.03988 1.29607,-0.05013 z M 7.4473698,10.018103 C 7.9511683,8.8732806 8.9618993,7.8735965 10.061443,7.4326006 10.193328,7.3797052 10.301322,7.3254757 10.30143,7.3120909 10.301597,7.290284 9.1630327,4.5660632 9.1438831,4.5424687 9.1132722,4.5047527 8.3261552,4.8682368 7.9431344,5.0969646 6.5526,5.9273477 5.4716561,7.1045649 4.78751,8.5336427 4.5949212,8.9359314 4.5185526,9.1232946 4.5399035,9.1411214 c 0.031759,0.026517 2.7438679,1.1535396 2.7653666,1.1491546 0.01349,-0.0028 0.077435,-0.12523 0.1420997,-0.272173 z M 18.063805,9.7137647 C 18.809686,9.4057554 19.431315,9.1431878 19.445201,9.1302813 19.501646,9.0778165 19.044254,8.1415261 18.721141,7.6481145 18.396819,7.152857 18.124634,6.8196601 17.680348,6.3740213 17.066079,5.757882 16.575007,5.3838755 15.860859,4.9882767 15.532165,4.8061977 14.899766,4.5248277 14.874966,4.5496279 c -0.01826,0.018263 -1.148748,2.7455964 -1.148748,2.7713936 0,0.00969 0.111211,0.064711 0.247136,0.1222672 0.875397,0.3706792 1.640135,1.0162124 2.193702,1.8517545 0.151372,0.2284792 0.48221,0.8757568 0.482466,0.9439358 8.3e-5,0.01914 0.01318,0.0348 0.02913,0.0348 0.01595,0 0.639269,-0.252008 1.385151,-0.5600173 z"
     id="path868" />
</svg>
