<?xml version="1.0" encoding="iso-8859-1"?>
<!-- Generator: Adobe Illustrator 19.0.0, SVG Export Plug-In . SVG Version: 6.00 Build 0)  -->
<svg version="1.1" id="Capa_1" xmlns="http://www.w3.org/2000/svg" xmlns:xlink="http://www.w3.org/1999/xlink" x="0px" y="0px"
	 viewBox="0 0 511.999 511.999" style="enable-background:new 0 0 511.999 511.999;" xml:space="preserve">
<g>
	<g>
		<g>
			<path d="M256,403.905c-4.142,0-7.5,3.357-7.5,7.5v11.112c0,4.143,3.358,7.5,7.5,7.5c4.142,0,7.5-3.357,7.5-7.5v-11.112
				C263.5,407.263,260.142,403.905,256,403.905z"/>
			<path d="M465.043,193.254c0-37.107-13.299-72.371-38.514-102.372L437.601,76.8c2.561-3.256,1.997-7.972-1.26-10.532
				c-3.254-2.561-7.971-1.996-10.532,1.26l-29.452,37.456c-15.181-19.235-38.678-31.618-65.028-31.618
				c-21.738,0-42.274,8.36-57.827,23.542c-7.424,7.246-13.305,15.675-17.503,24.857c-4.198-9.182-10.078-17.611-17.503-24.858
				c-15.552-15.181-36.089-23.541-57.827-23.541c-26.349,0-49.847,12.383-65.028,31.618L60.167,34.432
				c-2.82-3.587-1.047-7.059-0.437-8.038c0.611-0.977,2.952-4.093,7.412-3.142l35.074,7.517c14.175,3.036,29.054,2.606,43.03-1.244
				l43.751-12.058c18.129-4.997,37.787-2.337,53.936,7.296c8.059,4.806,18.073,4.807,26.133,0
				c16.149-9.633,35.809-12.291,53.935-7.296l43.751,12.058c13.977,3.851,28.857,4.28,43.03,1.244l35.074-7.516
				c4.459-0.962,6.801,2.163,7.412,3.142c0.61,0.979,2.383,4.451-0.438,8.038l-10.764,13.69c-2.56,3.256-1.996,7.972,1.26,10.532
				c3.257,2.562,7.971,1.997,10.533-1.26l10.764-13.69c5.8-7.376,6.339-17.288,1.372-25.249
				c-4.967-7.962-14.107-11.834-23.282-9.872L406.639,16.1c-11.826,2.537-24.24,2.177-35.901-1.037l-43.75-12.059
				c-22.051-6.077-45.963-2.843-65.606,8.874c-3.319,1.98-7.443,1.98-10.764,0c-19.644-11.717-43.556-14.953-65.606-8.874
				l-43.75,12.058c-11.662,3.214-24.076,3.571-35.902,1.037L70.284,8.583c-9.174-1.96-18.314,1.909-23.281,9.872
				c-4.966,7.961-4.428,17.872,1.372,25.249L85.47,90.881c-25.215,30.003-38.515,65.265-38.515,102.371
				c0,47.484,21.892,92.049,61.644,125.494c-10.51,6.618-18.608,16.55-22.951,28.483c-4.476,12.299-7.307,33.142-7.212,53.099
				c0.02,4.131,3.374,7.465,7.499,7.465h0.037c4.142-0.02,7.484-3.393,7.464-7.535c-0.085-18.047,2.45-37.296,6.308-47.898
				c3.843-10.558,11.693-18.976,21.818-23.586c17.479,12.458,37.011,22.279,57.909,29.224c1.621,7.592,1.084,15.401-1.607,22.796
				c-3.963,10.89-16.2,30.684-31.919,47.445c-15.408,16.433-29.818,24.884-37.607,22.043c-4.976-1.811-9.175-8.953-11.824-20.112
				c-0.957-4.028-4.996-6.522-9.031-5.565c-4.03,0.956-6.522,4.999-5.565,9.029c3.964,16.701,11.127,27.044,21.289,30.744
				c2.754,1.002,5.573,1.459,8.43,1.459c11.496,0,23.552-7.403,33.99-16.445c9.781,10.695,22.533,19.398,38.055,25.96v9.704
				c0,14.858,12.088,26.944,26.945,26.944c13.9,0,25.373-10.58,26.795-24.108c6.091,0.503,12.305,0.775,18.576,0.775
				c6.271,0,12.484-0.272,18.576-0.775c1.422,13.529,12.896,24.108,26.795,24.108c14.857,0,26.944-12.088,26.944-26.944v-9.703
				c15.522-6.562,28.274-15.266,38.055-25.96c10.438,9.042,22.493,16.445,33.99,16.444c2.856,0,5.678-0.457,8.431-1.459
				c18.124-6.596,23.32-33.185,24.487-54.328c1.236-22.385-1.613-48.219-6.927-62.82c-4.344-11.933-12.442-21.864-22.951-28.482
				C443.151,285.302,465.043,240.738,465.043,193.254z M283.981,107.644c12.734-12.431,29.55-19.275,47.349-19.275
				c37.401,0,67.83,30.429,67.83,67.83c0,37.401-30.428,67.83-67.83,67.83c-11.926,0-23.486-3.089-33.719-8.969
				c0.483-5.731-0.614-11.623-3.413-17.019l-21.314-41.092c-1.987-3.831-5.145-6.776-8.907-8.51
				C265.732,132.963,272.704,118.652,283.981,107.644z M256,161.686c0.734,0,2.552,0.212,3.567,2.169l21.314,41.092
				c1.872,3.609,2.281,7.645,1.353,11.38c-0.102,0.299-0.189,0.602-0.252,0.908c-0.764,2.453-2.116,4.746-4.032,6.661
				l-18.293,18.294c-0.977,0.977-2.275,1.515-3.657,1.515c-1.381,0-2.68-0.538-3.657-1.516l-18.293-18.293
				c-1.916-1.915-3.268-4.208-4.032-6.661c-0.063-0.306-0.15-0.609-0.252-0.908c-0.928-3.735-0.518-7.77,1.354-11.38l21.314-41.092
				C253.448,161.898,255.265,161.686,256,161.686z M180.67,88.369c17.799,0,34.615,6.845,47.349,19.275
				c11.278,11.008,18.249,25.319,20.006,40.793c-3.762,1.734-6.92,4.679-8.907,8.51l-21.314,41.092
				c-2.799,5.396-3.897,11.288-3.413,17.019c-10.233,5.879-21.793,8.969-33.719,8.969c-37.401,0-67.83-30.429-67.83-67.83
				C112.841,118.797,143.269,88.369,180.67,88.369z M222.573,485.056c0,6.586-5.358,11.944-11.945,11.944
				c-6.586,0-11.945-5.357-11.945-11.944v-26.729c0-6.586,5.358-11.945,11.945-11.945c6.586,0,11.945,5.358,11.945,11.945V485.056z
				 M313.315,485.056c0,6.586-5.358,11.944-11.944,11.944c-6.586,0-11.945-5.357-11.945-11.944v-26.729
				c0-6.586,5.358-11.945,11.945-11.945c6.585,0,11.944,5.358,11.944,11.945V485.056z M328.316,458.887v-0.56
				c0-14.858-12.088-26.945-26.944-26.945c-14.858,0-26.945,12.088-26.945,26.945v14.536c-6.023,0.529-12.193,0.804-18.426,0.804
				c-6.233,0-12.403-0.274-18.426-0.804v-14.536c0-14.858-12.088-26.945-26.945-26.945s-26.945,12.088-26.945,26.945v0.56
				c-11.007-5.372-20.128-12.035-27.253-19.904c0.152-0.161,0.307-0.322,0.458-0.483c15.336-16.353,29.759-37.973,35.073-52.576
				c2.753-7.565,3.844-15.449,3.284-23.287c19.45,4.971,39.871,7.546,60.754,7.546s41.305-2.576,60.754-7.546
				c-0.56,7.839,0.531,15.724,3.284,23.289c5.315,14.603,19.737,36.223,35.073,52.576c0.151,0.161,0.305,0.322,0.457,0.483
				C348.444,446.853,339.322,453.515,328.316,458.887z M412.254,352.36c3.963,10.89,7.313,33.918,6.045,56.862
				c-1.242,22.491-6.851,38.225-14.64,41.059c-7.785,2.838-22.198-5.611-37.607-22.042c-15.72-16.763-27.956-36.557-31.919-47.446
				c-2.692-7.395-3.229-15.203-1.608-22.796c20.899-6.944,40.431-16.766,57.91-29.224
				C400.562,333.384,408.412,341.801,412.254,352.36z M256,355.182c-106.996,0-194.043-72.641-194.043-161.929
				c0-32.527,11.385-63.569,33.004-90.303l12.085,15.37c-5.869,11.361-9.206,24.233-9.206,37.878c0,45.673,37.158,82.83,82.83,82.83
				c13.602,0,26.816-3.297,38.689-9.585c1.171,1.792,2.52,3.496,4.083,5.059l18.293,18.292c3.81,3.811,8.876,5.909,14.265,5.909
				c5.388,0,10.455-2.099,14.265-5.908l18.292-18.293c1.563-1.563,2.912-3.267,4.083-5.06c11.873,6.287,25.087,9.585,38.69,9.585
				c45.672,0,82.83-37.157,82.83-82.83c0-13.645-3.337-26.516-9.205-37.878l12.086-15.37c21.619,26.733,33.004,57.775,33.004,90.303
				C450.042,282.541,362.996,355.182,256,355.182z"/>
			<path d="M308.337,171.179c4.142,0,7.5-3.357,7.5-7.5c0-8.541,6.949-15.491,15.492-15.491c8.542,0,15.492,6.949,15.492,15.491
				c0,4.143,3.358,7.5,7.5,7.5s7.5-3.357,7.5-7.5c0-16.814-13.679-30.492-30.493-30.492c-16.814,0-30.493,13.679-30.493,30.492
				C300.836,167.822,304.195,171.179,308.337,171.179z"/>
			<path d="M221.795,386.866c-4.142,0-7.5,3.357-7.5,7.5v11.854c0,4.143,3.358,7.5,7.5,7.5s7.5-3.357,7.5-7.5v-11.854
				C229.296,390.224,225.937,386.866,221.795,386.866z"/>
			<path d="M290.205,386.866c-4.142,0-7.5,3.357-7.5,7.5v11.854c0,4.143,3.358,7.5,7.5,7.5s7.5-3.357,7.5-7.5v-11.854
				C297.705,390.224,294.347,386.866,290.205,386.866z"/>
			<path d="M157.678,171.179c4.142,0,7.5-3.357,7.5-7.5c0-8.541,6.949-15.491,15.492-15.491c8.542,0,15.492,6.949,15.492,15.491
				c0,4.143,3.358,7.5,7.5,7.5c4.142,0,7.5-3.357,7.5-7.5c0-16.814-13.679-30.492-30.493-30.492s-30.493,13.679-30.493,30.492
				C150.177,167.822,153.536,171.179,157.678,171.179z"/>
		</g>
	</g>
</g>
<g>
</g>
<g>
</g>
<g>
</g>
<g>
</g>
<g>
</g>
<g>
</g>
<g>
</g>
<g>
</g>
<g>
</g>
<g>
</g>
<g>
</g>
<g>
</g>
<g>
</g>
<g>
</g>
<g>
</g>
</svg>
